<?xml version="1.0" encoding="iso-8859-1"?>
<svg version="1.1" id="Capa_1" xmlns="http://www.w3.org/2000/svg" xmlns:xlink="http://www.w3.org/1999/xlink" x="0px" y="0px"
	 viewBox="0 0 409.601 409.601" style="enable-background:new 0 0 409.601 409.601;" xml:space="preserve">
<path style="fill:#E1E6E9;" d="M247.807,156.733v156.732h80.898C284.025,313.466,247.807,243.296,247.807,156.733z"/>
<path style="fill:#EBF0F3;" d="M328.705,0L328.705,0H80.898C37.952,0,2.92,64.888,0.261,146.796h-0.26v9.921v0.016l0,0v0.018V409.6
	h247.806v-96.135V156.733C247.807,70.172,284.025,0,328.705,0z"/>
<path style="fill:#D5D6DB;" d="M328.705,0c-44.68,0-80.898,70.171-80.898,156.733c0,86.562,36.218,156.732,80.898,156.732
	c44.676,0,80.896-70.17,80.896-156.732C409.601,70.172,373.381,0,328.705,0z M328.705,213.568
	c-16.202,0-29.335-25.445-29.335-56.835c0-31.387,13.132-56.833,29.335-56.833c16.2,0,29.334,25.446,29.334,56.833
	C358.039,188.122,344.905,213.568,328.705,213.568z"/>
<ellipse style="fill:#64798A;" cx="328.704" cy="156.734" rx="29.332" ry="56.832"/>
<g>
	<rect y="180.941" style="fill:#E1E6E9;" width="7.45" height="5.586"/>
	<rect x="85.084" y="180.941" style="fill:#E1E6E9;" width="15.514" height="5.586"/>
	<rect x="116.137" y="180.941" style="fill:#E1E6E9;" width="15.514" height="5.586"/>
	<rect x="22.973" y="180.941" style="fill:#E1E6E9;" width="15.514" height="5.586"/>
	<rect x="54.026" y="180.941" style="fill:#E1E6E9;" width="15.514" height="5.586"/>
	<rect x="147.19" y="180.941" style="fill:#E1E6E9;" width="15.514" height="5.586"/>
	<rect x="209.3" y="180.941" style="fill:#E1E6E9;" width="15.514" height="5.586"/>
	<rect x="178.248" y="180.941" style="fill:#E1E6E9;" width="15.514" height="5.586"/>
	<rect x="240.364" y="180.941" style="fill:#E1E6E9;" width="7.444" height="5.586"/>
</g>
<g>
</g>
<g>
</g>
<g>
</g>
<g>
</g>
<g>
</g>
<g>
</g>
<g>
</g>
<g>
</g>
<g>
</g>
<g>
</g>
<g>
</g>
<g>
</g>
<g>
</g>
<g>
</g>
<g>
</g>
</svg>
